<svg width="249" height="250" xmlns="http://www.w3.org/2000/svg"><path d="M221.706 187.545l-13.636-37.67h-51.648l-13.636 37.67h-12.358l46.023-122.982h11.59l45.938 122.982h-12.273zM181.65 79.818l-21.733 60h44.659l-21.818-60h-1.108zM68.907 190.102c-33.409 0-54.204-24.545-54.204-64.005 0-39.46 20.795-64.091 54.119-64.091 25.312 0 45.767 16.79 49.09 40.142h-11.846c-3.58-17.387-18.75-29.318-37.244-29.318-25.739 0-42.188 20.71-42.188 53.267 0 32.556 16.364 53.181 42.273 53.181 19.006 0 33.75-10.568 37.16-26.761h11.846c-3.494 22.585-22.926 37.585-49.006 37.585z" fill-rule="evenodd"/></svg>