<?xml version="1.0" encoding="UTF-8" standalone="no"?>
<svg width="64px" height="64px" viewBox="0 0 64 64" version="1.1" xmlns="http://www.w3.org/2000/svg" xmlns:xlink="http://www.w3.org/1999/xlink" xmlns:sketch="http://www.bohemiancoding.com/sketch/ns">
    <!-- Generator: Sketch 3.5.1 (25234) - http://www.bohemiancoding.com/sketch -->
    <title>Safari Pinned Icon</title>
    <desc>Created with Sketch.</desc>
    <defs></defs>
    <g id="Logo" stroke="none" stroke-width="1" fill="none" fill-rule="evenodd" sketch:type="MSPage">
        <g id="Safari-Pinned-Icon" sketch:type="MSLayerGroup" transform="translate(0.000000, -1.000000)" fill="#000000">
            <g id="Group" transform="translate(0.000000, 0.125000)" sketch:type="MSShapeGroup">
                <path d="M0,16.8804195 C0,8.04087041 7.15532148,0.875 16.0054195,0.875 L47.9945805,0.875 C56.8341296,0.875 64,8.03032148 64,16.8804195 L64,48.8695805 C64,57.7091296 56.8446785,64.875 47.9945805,64.875 L16.0054195,64.875 C7.16587041,64.875 0,57.7196785 0,48.8695805 L0,16.8804195 Z M57.1586914,49 L60.3227539,49 L48.4794922,17.293457 L45.4912109,17.293457 L33.6259766,49 L36.8120117,49 L40.3276367,39.2880859 L53.6430664,39.2880859 L57.1586914,49 Z M46.831543,21.2265625 L47.1171875,21.2265625 L52.7421875,36.6953125 L41.2285156,36.6953125 L46.831543,21.2265625 Z M17.7651367,49.6591797 C24.4887695,49.6591797 29.4985352,45.7919922 30.3994141,39.9692383 L27.3452148,39.9692383 C26.4663086,44.144043 22.6650391,46.8686523 17.7651367,46.8686523 C11.0854492,46.8686523 6.86669922,41.5512695 6.86669922,33.1577148 C6.86669922,24.7641602 11.1074219,19.4248047 17.7431641,19.4248047 C22.5112305,19.4248047 26.4223633,22.5009766 27.3452148,26.9833984 L30.3994141,26.9833984 C29.5424805,20.9628906 24.269043,16.6342773 17.7431641,16.6342773 C9.15185547,16.6342773 3.79052734,22.984375 3.79052734,33.1577148 C3.79052734,43.3310547 9.15185547,49.6591797 17.7651367,49.6591797 Z" id="Rectangle-1"></path>
            </g>
        </g>
    </g>
</svg>